<?xml version="1.0" standalone="no"?>
<!DOCTYPE svg PUBLIC "-//W3C//DTD SVG 20010904//EN"
 "http://www.w3.org/TR/2001/REC-SVG-20010904/DTD/svg10.dtd">
<svg version="1.0" xmlns="http://www.w3.org/2000/svg"
 width="343.000000pt" height="343.000000pt" viewBox="0 0 343.000000 343.000000"
 preserveAspectRatio="xMidYMid meet">
<metadata>
Created by potrace 1.14, written by Peter Selinger 2001-2017
</metadata>
<g transform="translate(0.000000,343.000000) scale(0.100000,-0.100000)"
fill="#000000" stroke="none">
<path d="M0 3085 l0 -345 65 25 c35 13 107 44 159 69 53 26 99 46 104 46 5 0
15 -12 21 -27 14 -33 56 -86 47 -61 -6 19 -13 16 139 54 123 30 219 63 281 98
34 19 41 21 36 7 -5 -14 -4 -14 13 -1 17 14 18 13 12 -2 -5 -13 -1 -18 12 -18
11 0 27 -3 35 -6 12 -5 15 -2 10 10 -3 9 -10 14 -14 11 -5 -3 -11 -1 -15 5 -3
5 2 10 12 11 14 0 14 2 -4 9 -29 12 -29 16 1 36 19 12 29 13 43 5 11 -6 13
-11 5 -11 -7 0 -11 -4 -8 -9 4 -5 0 -11 -6 -14 -7 -2 -10 -7 -7 -11 7 -7 18 3
44 39 12 18 13 15 3 -22 -6 -24 -15 -43 -20 -43 -5 0 -6 6 -2 13 5 8 4 9 -4 2
-7 -6 -13 -24 -14 -40 -1 -17 -7 -38 -14 -49 -7 -10 -10 -25 -7 -34 4 -10 2
-13 -5 -8 -8 5 -10 2 -5 -9 3 -10 1 -20 -5 -24 -11 -7 -28 -94 -38 -191 -3
-31 -11 -50 -27 -62 -31 -25 -126 -51 -159 -44 -18 3 -28 1 -28 -6 0 -6 -3 -8
-7 -5 -3 4 -11 0 -17 -8 -15 -20 -94 -23 -108 -4 -9 14 -8 4 7 -50 5 -16 -19
-48 -34 -45 -3 1 -10 0 -16 -2 -81 -30 -129 -43 -138 -37 -6 4 -7 1 -2 -7 6
-10 4 -12 -9 -7 -10 4 -15 3 -11 -3 3 -6 1 -10 -5 -10 -5 0 -30 -9 -55 -21
-27 -13 -52 -18 -65 -14 -20 6 -21 5 -10 -15 6 -11 10 -33 8 -48 -5 -43 -38
-40 -84 8 -37 38 -71 57 -44 25 10 -12 8 -18 -11 -34 -13 -10 -29 -16 -36 -14
-16 6 -16 4 -2 -36 9 -25 8 -36 -5 -56 -21 -33 -22 -140 -1 -149 13 -5 50 -73
71 -131 6 -18 8 -18 11 -2 3 9 9 15 14 12 15 -10 10 2 -8 21 -17 17 -16 17 12
10 17 -4 44 -18 62 -32 23 -17 44 -24 79 -24 42 0 51 -4 86 -41 21 -22 41 -54
45 -70 7 -36 24 -49 17 -14 -4 23 -2 25 14 16 11 -6 33 -26 51 -46 17 -20 31
-32 31 -27 0 5 -7 15 -15 22 -9 7 -14 15 -12 17 7 6 100 -28 127 -47 14 -9 32
-15 40 -12 8 3 12 1 8 -3 -4 -5 -3 -14 3 -22 6 -7 8 -13 3 -13 -5 0 -2 -5 6
-10 11 -7 12 -10 2 -10 -9 0 -11 -7 -7 -19 3 -11 1 -22 -5 -26 -5 -3 -10 -16
-10 -28 0 -13 -8 -33 -17 -47 -13 -18 -20 -66 -29 -199 -14 -194 -20 -230 -41
-238 -20 -8 35 -35 57 -28 12 4 28 35 46 92 20 61 30 80 34 67 6 -15 9 -12 20
18 13 36 14 36 75 40 37 2 62 -1 62 -7 0 -46 4 -75 12 -71 5 3 7 19 5 36 -3
21 1 30 11 30 14 0 19 12 16 32 0 4 22 19 49 33 28 14 50 21 50 16 0 -5 3 -16
6 -25 7 -19 -66 -93 -118 -120 -38 -19 -52 -56 -28 -71 6 -3 10 5 10 19 0 15
8 30 19 36 11 5 41 28 66 50 25 22 50 40 56 40 5 0 10 -17 10 -37 2 -31 3 -33
6 -11 5 30 19 38 21 13 7 -61 0 -204 -14 -292 -15 -99 -17 -154 -3 -88 17 82
28 174 34 295 6 128 18 194 35 205 6 4 13 -1 16 -10 5 -13 9 -13 24 5 11 13
21 17 25 11 4 -7 14 -5 30 5 18 12 24 12 28 2 4 -9 6 -7 6 4 1 9 11 20 23 24
13 3 31 13 40 21 11 10 32 14 62 11 26 -2 46 0 46 4 0 5 -9 8 -21 8 -11 0 -17
5 -14 10 3 6 21 10 40 10 19 0 37 5 40 11 4 6 13 8 20 5 7 -2 15 5 19 17 3 12
8 18 11 15 10 -10 -14 -48 -28 -45 -7 1 -11 -4 -9 -11 1 -6 -1 -11 -5 -11 -22
4 -44 -2 -39 -10 13 -21 57 4 88 50 18 27 37 47 42 46 13 -4 27 -58 20 -79 -3
-10 -1 -18 4 -18 14 0 18 49 8 111 -5 37 -4 48 9 52 10 4 15 1 15 -11 1 -16 1
-16 11 1 12 21 49 23 49 3 0 -8 -4 -18 -10 -21 -5 -3 -10 1 -10 10 0 9 -4 14
-9 11 -5 -3 -9 -47 -9 -98 0 -69 -6 -108 -21 -148 -13 -36 -15 -48 -6 -36 8
11 15 22 15 26 0 3 22 5 49 5 47 0 71 8 59 21 -3 3 -16 6 -29 6 -25 2 -59 25
-59 40 0 13 39 -1 70 -24 29 -21 107 -38 97 -21 -4 6 -24 14 -44 18 -48 8
-101 40 -105 63 -2 9 -2 28 0 40 4 18 7 20 13 10 6 -9 9 -7 9 10 0 12 5 22 10
22 6 0 10 5 10 11 0 5 -4 8 -9 5 -11 -7 1 48 22 94 19 43 79 101 129 125 34
16 52 45 28 45 -16 0 -60 -23 -55 -29 4 -7 -16 -10 -85 -12 -48 -1 -133 27
-124 42 3 5 -1 6 -8 4 -8 -3 -22 2 -33 11 -11 8 -14 12 -6 8 8 -4 -5 14 -29
39 -24 25 -45 54 -46 63 -1 9 -12 23 -23 31 -12 8 -21 20 -21 27 0 7 -11 23
-25 36 -14 13 -25 29 -25 36 0 6 -7 17 -15 24 -8 7 -15 20 -15 29 0 9 -14 33
-30 53 -20 24 -28 42 -23 55 3 10 2 15 -2 10 -10 -9 -38 90 -29 104 3 5 1 9
-5 9 -13 0 -24 37 -16 50 5 8 11 7 21 -1 11 -9 14 -8 14 5 0 9 9 21 20 28 23
15 27 30 5 22 -12 -5 -15 3 -15 40 0 40 3 46 25 52 14 3 37 3 53 0 22 -5 24
-4 9 5 -10 6 -39 11 -63 11 -38 0 -44 2 -39 16 5 13 3 14 -6 5 -6 -6 -18 -9
-27 -6 -10 4 -13 2 -8 -5 5 -8 0 -12 -14 -12 -12 0 -19 -4 -16 -8 2 -4 -3 -13
-13 -19 -17 -11 -18 -5 -12 54 2 20 50 46 100 55 131 21 139 27 81 57 -61 32
-149 18 -191 -30 -15 -17 -16 -16 -17 19 -1 20 8 73 19 117 11 44 22 87 24 97
5 21 30 68 52 95 25 30 110 93 126 93 7 0 17 4 23 10 5 5 34 12 64 14 35 2 54
8 52 15 -2 9 3 9 16 2 13 -7 23 -6 31 2 10 9 11 8 6 -5 -8 -20 15 -19 41 2 11
9 15 10 10 3 -5 -9 1 -13 19 -13 34 0 185 -105 185 -129 0 -3 -17 -6 -37 -6
-21 1 -51 -3 -67 -9 -44 -14 -144 -83 -157 -109 -7 -12 -18 -26 -26 -30 -9 -5
-10 -14 -4 -25 4 -9 6 -22 4 -29 -11 -31 19 -16 77 38 71 65 130 98 192 105
52 6 73 -12 93 -85 9 -31 29 -82 45 -115 16 -32 27 -63 23 -70 -5 -7 -2 -7 8
1 12 9 19 6 38 -18 13 -16 27 -29 32 -29 8 0 44 -35 79 -77 9 -10 14 -31 13
-48 -1 -20 1 -25 7 -16 6 11 12 5 25 -25 9 -21 19 -52 21 -69 3 -16 10 -44 15
-61 5 -18 8 -42 5 -55 -2 -13 -7 -42 -12 -64 -7 -40 -34 -96 -57 -120 -7 -7
-30 -34 -52 -61 -22 -27 -52 -61 -67 -75 -16 -15 -28 -32 -28 -39 0 -6 -4 -8
-10 -5 -5 3 -10 1 -10 -4 0 -18 20 -12 52 14 16 14 26 25 21 25 -4 0 5 9 21
19 17 11 34 17 39 14 6 -3 7 -1 3 5 -4 7 -2 12 5 12 6 0 29 18 51 40 45 45 84
55 73 19 -4 -12 -3 -19 2 -16 12 8 4 -112 -9 -137 -9 -16 -7 -18 6 -13 9 4 16
5 16 4 0 -2 -5 -29 -10 -60 -8 -40 -8 -61 0 -69 41 -49 50 -63 50 -79 0 -9 3
-26 6 -36 4 -13 3 -15 -4 -4 -17 24 -20 -3 -7 -74 24 -136 39 -195 50 -195 21
-1 -30 -30 -53 -30 -13 0 -20 -4 -17 -10 4 -6 11 -8 16 -5 5 4 9 1 9 -4 0 -15
-12 -14 -38 5 -13 9 -26 13 -30 9 -3 -3 0 -11 8 -16 11 -8 6 -9 -20 -5 l-35 6
33 -20 c18 -11 37 -18 42 -15 6 3 7 -1 4 -9 -7 -19 7 -21 24 -4 8 8 12 8 12 1
0 -7 20 -9 58 -6 58 5 202 -14 202 -27 0 -4 21 -6 47 -6 40 1 46 -2 48 -21 1
-18 -2 -20 -22 -12 -35 13 -56 11 -47 -4 4 -6 -5 -1 -19 12 -15 14 -27 19 -27
13 0 -7 4 -12 9 -12 13 0 22 -43 10 -55 -10 -10 -14 -11 -61 -13 -25 -2 -26
-3 -16 -36 6 -19 16 -34 22 -33 5 1 15 -8 21 -21 5 -12 17 -22 25 -21 10 0 11
2 3 6 -7 2 -13 9 -13 14 0 4 7 6 15 3 16 -7 19 -43 9 -105 -5 -32 -13 -39 -53
-58 -26 -11 -51 -21 -56 -21 -5 0 -26 -18 -46 -40 -21 -22 -41 -40 -46 -40 -4
0 -1 4 7 10 8 5 12 12 8 15 -3 3 -24 -11 -46 -33 -22 -21 -47 -42 -57 -45 -9
-4 -13 -11 -10 -17 3 -5 -1 -10 -9 -10 -9 0 -16 -4 -16 -10 0 -5 7 -10 16 -10
9 0 14 -6 12 -12 -5 -14 15 -38 30 -38 5 0 17 12 27 26 16 25 16 25 -5 14 -11
-6 -18 -15 -15 -21 4 -5 2 -9 -4 -9 -5 0 -12 4 -15 8 -5 9 8 34 18 33 20 -3
26 0 20 12 -5 8 -2 8 9 -2 18 -15 21 -13 152 113 28 26 66 55 85 64 28 14 39
28 55 72 11 31 36 90 55 132 l34 76 52 7 c29 3 58 13 65 21 6 8 20 14 30 14
10 0 20 3 23 8 3 6 58 7 109 3 5 -1 5 -6 1 -12 -4 -7 1 -7 16 1 15 8 20 8 16
1 -4 -6 0 -11 8 -11 9 0 16 -5 16 -12 0 -6 3 -9 6 -5 4 3 15 -4 25 -16 10 -12
18 -16 19 -9 0 7 -16 28 -35 46 -19 19 -35 37 -35 41 0 3 -12 17 -27 31 -14
13 -23 27 -20 30 10 10 58 -35 112 -104 28 -35 72 -84 99 -108 46 -42 53 -60
12 -29 -24 18 -36 19 -36 3 0 -6 3 -8 6 -5 4 4 19 -2 34 -13 16 -11 33 -20 39
-20 5 0 14 -7 19 -16 5 -9 12 -15 16 -14 4 0 21 -10 39 -24 30 -24 31 -27 17
-50 -8 -13 -47 -59 -86 -102 -116 -128 -138 -157 -74 -99 30 27 61 59 69 70 8
11 31 35 50 52 20 18 32 33 27 33 -19 0 29 29 49 30 19 1 19 1 2 14 -17 13
-17 15 5 31 17 13 18 16 4 11 -12 -4 -28 3 -50 25 -17 17 -24 29 -16 28 8 -2
25 0 37 4 14 5 33 1 57 -12 l36 -21 0 1280 0 1280 -1715 0 -1715 0 0 -345z
m1030 1 c0 -2 -8 -10 -17 -17 -16 -13 -17 -12 -4 4 13 16 21 21 21 13z m901
-143 c32 -27 41 -49 25 -62 -10 -9 -17 -7 -27 6 -13 16 -12 17 4 4 23 -18 22
-6 -5 29 -11 16 -26 26 -31 23 -6 -3 -7 -1 -3 5 9 16 12 15 37 -5z m73 -121
c-14 -3 -14 -6 1 -28 8 -13 20 -36 25 -52 8 -23 8 -24 -3 -8 -6 10 -22 34 -35
54 -18 27 -21 37 -10 43 10 7 10 11 0 21 -6 6 -12 17 -12 23 1 5 12 -3 25 -20
20 -25 22 -31 9 -33z m71 -142 c3 -5 1 -10 -4 -10 -6 0 -11 5 -11 10 0 6 2 10
4 10 3 0 8 -4 11 -10z m180 -999 c3 -5 1 -12 -5 -16 -5 -3 -10 1 -10 9 0 18 6
21 15 7z m-1652 -28 c-7 -2 -19 -2 -25 0 -7 3 -2 5 12 5 14 0 19 -2 13 -5z
m1706 -170 c2 -51 6 -58 32 -55 4 1 6 -6 5 -16 0 -10 5 -16 14 -14 11 3 10 -1
-3 -16 -16 -18 -16 -20 -2 -26 9 -3 13 -10 10 -16 -3 -5 -2 -10 3 -10 14 0 9
-43 -5 -47 -7 -3 -19 13 -28 34 -20 46 -46 163 -39 175 8 13 13 9 13 -9z m95
-157 c-3 -9 -10 -16 -15 -16 -5 0 -4 9 3 20 14 22 21 20 12 -4z m-1554 -56 l0
-70 -59 0 -60 0 -3 33 c-4 35 10 77 25 77 5 0 7 6 4 13 -3 8 10 13 44 15 l49
3 0 -71z m1607 0 c6 -14 12 -19 12 -12 1 7 6 10 11 7 6 -4 8 -10 5 -15 -3 -5
11 -14 30 -21 19 -7 35 -17 35 -22 0 -5 6 -7 13 -4 6 2 18 -2 26 -10 11 -12 7
-13 -31 -8 -67 10 -120 27 -125 43 -5 11 -7 11 -14 0 -6 -9 -9 -7 -9 9 0 15
-5 21 -14 17 -21 -8 -32 17 -12 28 9 5 22 15 28 22 14 15 27 6 45 -34z m-1529
14 c29 -8 28 -20 -4 -40 -24 -16 -26 -16 -42 1 -16 18 -16 18 1 5 17 -12 18
-11 12 13 -8 28 -4 30 33 21z m1991 -51 c43 -25 39 -33 -10 -20 -31 7 -47 7
-60 -2 -15 -9 -19 -8 -19 2 0 12 32 34 52 36 3 1 20 -7 37 -16z m-229 -3 c0
-5 -5 -10 -11 -10 -5 0 -7 5 -4 10 3 6 8 10 11 10 2 0 4 -4 4 -10z m58 -22
c-1 -30 -18 -36 -40 -15 -7 8 -20 12 -28 9 -8 -2 -3 5 13 15 39 28 56 25 55
-9z m-413 12 c-3 -5 -15 -10 -26 -10 -11 0 -17 5 -14 10 3 6 15 10 26 10 11 0
17 -4 14 -10z m455 -7 c0 -5 -5 -15 -10 -23 -8 -12 -10 -11 -10 8 0 12 5 22
10 22 6 0 10 -3 10 -7z m94 -32 c17 -6 17 -8 3 -14 -8 -3 -21 1 -27 9 -13 15
-6 17 24 5z m-167 -71 c1 0 1 -9 0 -20 -1 -12 -5 -16 -10 -11 -5 5 -16 7 -24
4 -15 -6 -33 12 -33 34 0 8 9 9 32 2 18 -5 34 -9 35 -9z m373 -1 c0 -5 4 -8 8
-5 5 3 16 -8 26 -25 24 -40 4 -37 -28 6 -15 19 -22 35 -17 35 6 0 11 -5 11
-11z m126 -137 c1 -7 0 -8 -3 -2 -2 5 -9 8 -14 4 -5 -3 -9 0 -9 6 0 15 23 7
26 -8z m119 -52 c3 -5 2 -10 -4 -10 -5 0 -13 5 -16 10 -3 6 -2 10 4 10 5 0 13
-4 16 -10z"/>
<path d="M2421 1284 c0 -11 3 -14 6 -6 3 7 2 16 -1 19 -3 4 -6 -2 -5 -13z"/>
<path d="M1742 2708 c-22 -22 -24 -22 -36 -6 -11 15 -16 16 -31 4 -12 -8 -15
-18 -10 -27 6 -11 5 -11 -5 -2 -19 17 -40 -8 -40 -49 0 -26 3 -30 11 -18 8 11
9 8 4 -15 -3 -16 -8 -38 -11 -47 -3 -12 0 -15 13 -12 40 11 56 33 57 76 1 24
6 46 11 50 14 11 54 10 99 -3 l39 -11 -32 -19 c-34 -21 -41 -31 -13 -23 63 21
72 27 70 50 -2 22 -14 29 -45 25 -7 -1 -9 7 -6 19 6 24 -9 26 -27 5 -18 -21
-32 -19 -25 5 8 26 5 25 -23 -2z"/>
<path d="M1556 2242 c-2 -4 13 -9 35 -9 23 -1 37 2 34 8 -7 11 -62 12 -69 1z"/>
<path d="M1470 2202 c0 -5 8 -17 19 -26 17 -15 19 -16 25 -1 3 9 4 21 0 26 -7
11 -44 12 -44 1z"/>
<path d="M1506 2135 c-9 -26 -7 -32 5 -12 6 10 9 21 6 23 -2 3 -7 -2 -11 -11z"/>
<path d="M1554 2056 c-4 -11 -2 -21 7 -27 10 -6 6 -8 -13 -7 -18 2 -24 6 -18
12 6 6 10 15 10 21 -1 18 -30 -28 -30 -48 0 -10 -4 -16 -9 -12 -17 10 -2 -55
20 -86 22 -31 54 -36 54 -8 0 8 8 23 18 33 9 10 14 22 11 28 -5 7 0 9 14 6 12
-4 22 -3 22 2 0 4 7 11 16 14 10 4 13 2 8 -6 -5 -7 -3 -8 7 -3 28 18 48 39 43
47 -3 4 2 8 10 8 8 0 18 -5 22 -11 5 -8 10 -6 16 5 12 22 29 21 21 -1 -7 -17
-6 -17 11 0 9 9 22 17 27 17 5 0 9 4 9 9 0 10 -79 20 -85 11 -2 -3 -29 -4 -61
-3 -31 0 -68 -3 -80 -8 -18 -6 -26 -4 -33 9 -9 16 -10 16 -17 -2z m131 -24
c-6 -5 -29 -16 -52 -25 -37 -14 -43 -15 -43 -2 0 8 8 19 18 24 21 13 90 15 77
3z m-95 -82 c0 -5 -2 -10 -4 -10 -3 0 -8 5 -11 10 -3 6 -1 10 4 10 6 0 11 -4
11 -10z"/>
<path d="M250 1760 c17 -22 33 -40 35 -40 2 0 -2 13 -8 29 -6 17 -15 28 -19
25 -4 -3 -8 2 -8 10 0 9 -7 16 -16 16 -12 0 -8 -10 16 -40z"/>
<path d="M2262 1570 c0 -14 2 -19 5 -12 2 6 2 18 0 25 -3 6 -5 1 -5 -13z"/>
<path d="M1480 1320 c-9 -6 -10 -10 -3 -10 6 0 15 5 18 10 8 12 4 12 -15 0z"/>
<path d="M1840 1160 c0 -5 5 -10 10 -10 6 0 10 5 10 10 0 6 -4 10 -10 10 -5 0
-10 -4 -10 -10z"/>
<path d="M1504 1083 c-3 -16 -9 -41 -13 -58 -4 -16 -8 -68 -8 -115 l-1 -85 13
105 c7 58 16 122 20 143 8 42 -1 51 -11 10z"/>
<path d="M2410 1019 c0 -5 5 -7 10 -4 6 3 10 8 10 11 0 2 -4 4 -10 4 -5 0 -10
-5 -10 -11z"/>
<path d="M3118 982 c9 -10 19 -17 21 -16 6 5 -20 34 -30 34 -5 0 -1 -8 9 -18z"/>
<path d="M0 476 l0 -476 276 0 277 0 -6 108 c-7 138 -26 209 -99 362 -65 136
-51 120 -303 355 -70 66 -132 122 -136 123 -5 2 -9 -209 -9 -472z"/>
<path d="M1473 794 c0 -23 1 -24 9 -10 7 12 7 21 0 28 -6 6 -9 0 -9 -18z"/>
<path d="M989 805 c-4 -5 -9 -23 -13 -40 -7 -30 -7 -30 9 -7 9 12 15 30 13 40
-2 9 -6 13 -9 7z"/>
<path d="M2240 509 c0 -5 5 -7 10 -4 6 3 10 8 10 11 0 2 -4 4 -10 4 -5 0 -10
-5 -10 -11z"/>
<path d="M2206 473 c-6 -14 -5 -15 5 -6 7 7 10 15 7 18 -3 3 -9 -2 -12 -12z"/>
<path d="M2869 283 l-24 -28 28 24 c15 14 27 26 27 28 0 8 -8 1 -31 -24z"/>
<path d="M2797 198 c-25 -29 -44 -55 -41 -57 2 -2 5 -2 7 0 2 2 22 28 46 57
55 67 47 68 -12 0z"/>
<path d="M2724 108 l-19 -23 23 19 c12 11 22 21 22 23 0 8 -8 2 -26 -19z"/>
<path d="M2980 40 c0 -5 5 -10 10 -10 6 0 10 5 10 10 0 6 -4 10 -10 10 -5 0
-10 -4 -10 -10z"/>
</g>
</svg>
